<svg xmlns="http://www.w3.org/2000/svg" viewBox="0 0 600 160">
  <defs>
    <linearGradient id="gold" x1="0%" y1="0%" x2="100%" y2="100%">
      <stop offset="0%" style="stop-color:#f0ad4e"/>
      <stop offset="50%" style="stop-color:#ffd700"/>
      <stop offset="100%" style="stop-color:#f0ad4e"/>
    </linearGradient>
  </defs>

  <!-- Film reel icon in bordered frame - right side, tight to text -->
  <g transform="translate(460, 5)">
    <rect x="0" y="0" width="110" height="135" rx="4" fill="none" stroke="url(#gold)" stroke-width="3"/>
    <line x1="28" y1="0" x2="28" y2="-10" stroke="url(#gold)" stroke-width="3"/>
    <line x1="82" y1="0" x2="82" y2="-10" stroke="url(#gold)" stroke-width="3"/>
    <line x1="28" y1="-10" x2="82" y2="-10" stroke="url(#gold)" stroke-width="3"/>
    <circle cx="55" cy="55" r="36" fill="none" stroke="url(#gold)" stroke-width="2.5"/>
    <circle cx="55" cy="55" r="13" fill="none" stroke="url(#gold)" stroke-width="2"/>
    <circle cx="55" cy="55" r="4.5" fill="url(#gold)"/>
    <line x1="55" y1="19" x2="55" y2="42" stroke="url(#gold)" stroke-width="2"/>
    <line x1="55" y1="68" x2="55" y2="91" stroke="url(#gold)" stroke-width="2"/>
    <line x1="19" y1="55" x2="42" y2="55" stroke="url(#gold)" stroke-width="2"/>
    <line x1="68" y1="55" x2="91" y2="55" stroke="url(#gold)" stroke-width="2"/>
    <line x1="30" y1="30" x2="43" y2="43" stroke="url(#gold)" stroke-width="2"/>
    <line x1="67" y1="67" x2="80" y2="80" stroke="url(#gold)" stroke-width="2"/>
    <line x1="80" y1="30" x2="67" y2="43" stroke="url(#gold)" stroke-width="2"/>
    <line x1="43" y1="67" x2="30" y2="80" stroke="url(#gold)" stroke-width="2"/>
    <path d="M 86,78 Q 95,100 86,118 Q 80,128 74,132" fill="none" stroke="url(#gold)" stroke-width="2"/>
    <rect x="84" y="92" width="4" height="5" rx="1" fill="url(#gold)" opacity="0.6"/>
    <rect x="82" y="102" width="4" height="5" rx="1" fill="url(#gold)" opacity="0.6"/>
    <rect x="79" y="112" width="4" height="5" rx="1" fill="url(#gold)" opacity="0.6"/>
    <polygon points="55,10 57,15 62,15 58,18 59,23 55,20 51,23 52,18 48,15 53,15" fill="url(#gold)" opacity="0.8"/>
    <polygon points="32,17 33,20 36,20 34,22 35,25 32,23 29,25 30,22 28,20 31,20" fill="url(#gold)" opacity="0.5"/>
    <polygon points="78,17 79,20 82,20 80,22 81,25 78,23 75,25 76,22 74,20 77,20" fill="url(#gold)" opacity="0.5"/>
  </g>

  <!-- GERMANY TELUGU -->
  <text x="15" y="62" font-family="'Cinzel', 'Impact', 'Arial Black', sans-serif" font-weight="900" font-size="62" fill="url(#gold)" letter-spacing="4" font-style="italic">GERMANY</text>
  <text x="15" y="118" font-family="'Cinzel', 'Impact', 'Arial Black', sans-serif" font-weight="900" font-size="62" fill="url(#gold)" letter-spacing="2" font-style="italic">TELUGU</text>

  <!-- Thin line -->
  <line x1="15" y1="128" x2="440" y2="128" stroke="url(#gold)" stroke-width="1.5" opacity="0.5"/>

  <!-- MOVIES + tagline -->
  <text x="15" y="150" font-family="'Cinzel', 'Impact', 'Arial Black', sans-serif" font-weight="900" font-size="26" fill="#888" letter-spacing="16" font-style="italic">M O V I E S</text>
</svg>
